<?xml version="1.0" standalone="no"?>
<!DOCTYPE svg PUBLIC "-//W3C//DTD SVG 20010904//EN"
 "http://www.w3.org/TR/2001/REC-SVG-20010904/DTD/svg10.dtd">
<svg version="1.0" xmlns="http://www.w3.org/2000/svg"
 width="187.000000pt" height="187.000000pt" viewBox="0 0 187.000000 187.000000"
 preserveAspectRatio="xMidYMid meet">
<metadata>
Created by potrace 1.11, written by Peter Selinger 2001-2013
</metadata>
<g transform="translate(0.000000,187.000000) scale(0.100000,-0.100000)"
fill="#000000" stroke="none">
<path d="M295 1846 c-61 -19 -97 -41 -136 -83 -63 -68 -89 -127 -90 -204 -3
-213 177 -364 380 -320 53 11 161 73 161 91 0 13 -22 35 -115 115 -103 89
-107 93 -98 97 4 2 71 4 148 3 156 0 160 1 142 65 -30 112 -102 196 -197 229
-50 18 -148 21 -195 7z"/>
<path d="M502 1499 c2 -3 55 -50 118 -105 63 -54 117 -101 120 -104 3 -3 39
-34 80 -70 41 -36 81 -70 87 -77 7 -6 54 -46 103 -89 l90 -77 0 -427 0 -428
-37 -12 c-21 -7 -51 -18 -68 -25 -16 -7 -66 -25 -110 -41 -44 -15 -83 -30 -87
-33 -4 -3 150 -6 342 -6 191 0 346 3 343 7 -2 5 -9 8 -15 8 -6 0 -72 23 -147
52 l-136 51 0 426 0 426 50 44 c27 24 79 69 114 100 36 31 83 72 105 91 23 19
43 37 46 40 3 3 39 34 80 70 41 36 91 80 111 98 21 19 52 44 70 58 18 13 29
25 23 25 -5 1 -69 2 -143 3 -155 2 -128 16 -265 -139 -43 -50 -94 -107 -112
-127 -29 -31 -33 -40 -25 -61 35 -92 -59 -178 -144 -132 -57 30 -71 95 -33
151 24 35 76 52 118 39 15 -5 30 4 61 37 23 24 81 84 130 135 49 51 89 94 89
95 0 2 -216 3 -480 3 -264 0 -479 -3 -478 -6z"/>
</g>
</svg>
